<?xml version="1.0" standalone="no"?>
<!DOCTYPE svg PUBLIC "-//W3C//DTD SVG 1.1//EN" "http://www.w3.org/Graphics/SVG/1.1/DTD/svg11.dtd" >
<svg xmlns="http://www.w3.org/2000/svg" xmlns:xlink="http://www.w3.org/1999/xlink" version="1.1">
<metadata>
Created by FontForge 20170731 at Fri Feb  7 20:01:57 2020
 By Aleksey,,,
Copyright (c) 2020 by Sahirul Iman, Semarang, alexatype. All rights reserved.
</metadata>
<defs>
<font id="HOTGRILL" horiz-adv-x="595" >
  <font-face 
    font-family="HOT GRILL"
    font-weight="400"
    font-stretch="normal"
    units-per-em="1000"
    panose-1="0 0 0 0 0 0 0 0 0 0"
    ascent="745"
    descent="-255"
    x-height="667"
    cap-height="698"
    bbox="-28 -237 843 1011"
    underline-thickness="0"
    underline-position="0"
    unicode-range="U+0020-2122"
  />
<missing-glyph horiz-adv-x="313" 
 />
    <glyph glyph-name="copyright" unicode="&#x28;C&#x29;" horiz-adv-x="404" 
d="M101 687l9 -230l193 3l6 235zM40 732l329 19l-7 -340l-306 -13zM273 603l-76 -6v-54l76 -2l-2 -64l-140 3v178l137 11z" />
    <glyph glyph-name="registered" unicode="&#x28;R&#x29;" horiz-adv-x="399" 
d="M101 687l9 -230l193 3l6 235zM40 732l329 19l-7 -340l-306 -13zM239 468l-35 63l-11 -1l9 -57l-51 -5l-27 202l144 10l9 -143l-19 -2l24 -43zM182 623l4 -43l37 3l-3 43z" />
    <glyph glyph-name="trademark" unicode="&#x28;TM&#x29;" horiz-adv-x="478" 
d="M136 658l-3 -188l-63 1l2 189l-47 1l3 64l155 -6l-1 -63zM201 462l3 269h72l39 -98l51 98l68 -9l1 -246h-63l-1 128l-29 -57l-61 2l-15 40l-1 -127h-64z" />
    <glyph glyph-name=".notdef" horiz-adv-x="313" 
 />
    <glyph glyph-name=".null" horiz-adv-x="0" 
 />
    <glyph glyph-name="nonmarkingreturn" horiz-adv-x="333" 
 />
    <glyph glyph-name="space" unicode=" " horiz-adv-x="313" 
 />
    <glyph glyph-name="exclam" unicode="!" horiz-adv-x="250" 
d="M206 638l-5 -507l-157 3l-19 507zM222 82l3 -144l-184 3l-3 144z" />
    <glyph glyph-name="quotedbl" unicode="&#x22;" horiz-adv-x="406" 
d="M68 626l14 51l-57 60v89l46 65h84l49 -46l33 46h84l57 -51l3 -108l-73 -127l-73 22l14 51l-41 43l-65 -117z" />
    <glyph glyph-name="numbersign" unicode="#" horiz-adv-x="646" 
d="M320 647l-5 -92h51l11 108l182 -22l-8 -87h70v-182h-92l-5 -54l84 -3l-3 -182l-103 3l-14 -136l-182 22l11 117l-35 3l-8 -141l-184 11l11 136h-76l3 184l87 -3l3 41h-81v182h95l8 106zM339 325l5 46h-43l-5 -46h43z" />
    <glyph glyph-name="dollar" unicode="$" horiz-adv-x="555" 
d="M354 479l-78 42v-93l124 -14l-3 -268l-122 -3v-114h-106v113h-17l-127 46l34 98l110 -42v93l-134 14l7 276h127v103h106v-100h17l107 -56zM171 523h-27l-3 -80l30 -5v85zM276 244h20v76l-20 3v-79z" />
    <glyph glyph-name="percent" unicode="%" horiz-adv-x="711" 
d="M160 574l-46 -3v-51zM44 2l3 154v43l33 27l382 314v119l184 -3l-3 -163v-43l-33 -27l-382 -312v-114zM592 134l-41 -46l38 3zM514 147l51 60l-19 3l-33 -38zM529 300l111 -8l46 -3l-3 -43l-3 -203v-43l-43 -3l-165 -5l-43 -3l-3 46l-5 152l-3 19l14 14l62 65l14 16h22z
M147 449h19l30 27v33zM69 662l168 3h46v-43l5 -165l3 -22l-16 -16l-60 -49l-14 -11h-16l-114 -5l-46 -3v309z" />
    <glyph glyph-name="ampersand" unicode="&#x26;" horiz-adv-x="663" 
d="M396 542l-184 -3v-38l89 -114l-92 -133v-125l168 14v35h-62l-3 182l62 3v84l182 3v-84l79 3l3 -184h-79l3 -214l-537 -34l3 380l46 67l-46 57l3 279l363 8z" />
    <glyph glyph-name="quotesingle" unicode="'" horiz-adv-x="237" 
d="M65 625l14 51l-54 60v89l43 65h84l57 -51l3 -108l-73 -127z" />
    <glyph glyph-name="parenleft" unicode="(" horiz-adv-x="322" 
d="M297 696q-54 -101 -76 -213q-9 -48 -13 -103t3 -114t27.5 -121t58.5 -124l-157 -95q-64 106 -89.5 211t-25.5 200.5t17.5 177.5t39 142.5t39 95t17.5 35.5z" />
    <glyph glyph-name="parenright" unicode=")" horiz-adv-x="324" 
d="M185 788q0 -1 18 -35.5t39 -95t39 -142.5t17.5 -177.5t-26 -200.5t-90.5 -211l-157 95q38 62 58 124t27 121t3.5 114t-12.5 103q-22 112 -76 213z" />
    <glyph glyph-name="asterisk" unicode="*" horiz-adv-x="408" 
d="M253 735v-68l65 38l60 -98l-60 -35l65 -35l-54 -100l-60 33l3 -76h-117v68l-65 -41l-57 100l57 35l-65 35l54 100l60 -33v73z" />
    <glyph glyph-name="plus" unicode="+" horiz-adv-x="506" 
d="M25 432h136v138h184v-138h136v-184h-136v-136h-184v136h-136v184z" />
    <glyph glyph-name="comma" unicode="," horiz-adv-x="239" 
d="M65 -58l14 54l-54 60v89l46 65q20 0 40.5 -1.5t43.5 -1.5l54 -49l5 -108l-76 -127z" />
    <glyph glyph-name="hyphen" unicode="-" horiz-adv-x="354" 
d="M25 248v184h304v-184h-304z" />
    <glyph glyph-name="period" unicode="." horiz-adv-x="241" 
d="M210 160l6 -109l-63 -55h-73l-55 60v89l46 66l83 -3z" />
    <glyph glyph-name="slash" unicode="/" horiz-adv-x="437" 
d="M412 663l-211 -672l-176 54l211 672z" />
    <glyph glyph-name="zero" unicode="0" horiz-adv-x="546" 
d="M315 543h-100l-3 -165zM231 191l95 3l5 157zM123 726h306l92 -95l-14 -528l-89 -89l-298 -8l-95 92l5 537z" />
    <glyph glyph-name="one" unicode="1" horiz-adv-x="350" 
d="M128 -4l11 480l-114 119l146 138l154 -68l-16 -672z" />
    <glyph glyph-name="two" unicode="2" horiz-adv-x="538" 
d="M25 512l65 201l301 8l122 -149l-16 -241l-282 -157v-8l271 3l3 -184l-458 -3l3 298l287 163l5 68l-22 24l-79 -3l-27 -76z" />
    <glyph glyph-name="three" unicode="3" horiz-adv-x="497" 
d="M74 442h176l35 41l-3 57l-244 -3v184l333 3l92 -92l3 -214l-43 -54l46 -49l3 -214l-92 -92l-355 8l3 182l260 -5v46l-16 19h-198v183z" />
    <glyph glyph-name="four" unicode="4" horiz-adv-x="533" 
d="M210 693v-398l73 3l8 404l184 -5l-8 -388h33l8 -182l-46 -3l-3 -122l-182 5l3 108l-255 -14v591z" />
    <glyph glyph-name="five" unicode="5" horiz-adv-x="540" 
d="M209 254v-54l100 3l22 27l-3 95l-203 8l-87 95l11 290l453 -3l-3 -184l-274 3l-3 -22l201 -5l87 -89l5 -252l-119 -146h-279l-89 92l-3 144z" />
    <glyph glyph-name="six" unicode="6" horiz-adv-x="543" 
d="M491 563l-279 3v-73l214 -3l92 -95l-14 -293l-89 -87l-298 -8l-92 92l5 561l92 89l371 -5zM210 310l-3 -119l119 3l5 114z" />
    <glyph glyph-name="seven" unicode="7" horiz-adv-x="533" 
d="M310 173l-195 8l8 182l192 -8l5 176l-287 -14l-8 184l385 16l98 -95l-19 -629l-182 5z" />
    <glyph glyph-name="eight" unicode="8" horiz-adv-x="560" 
d="M215 199l136 -5v46l-43 43l-95 -62zM440 8l-317 11l-87 87l-11 209l79 54l-68 57l11 211l92 87h295l92 -92l3 -214l-46 -54l49 -49l3 -214zM307 437l38 46v57h-119l-3 -33z" />
    <glyph glyph-name="nine" unicode="9" horiz-adv-x="543" 
d="M38 179l282 -5l3 89h-209l-89 98l11 293l89 87l298 8l95 -92l-19 -577l-92 -89l-371 5zM328 444l3 119l-117 -5l-3 -111z" />
    <glyph glyph-name="colon" unicode=":" horiz-adv-x="240" 
d="M215 164l-62 -54h-72l-51 60l-3 89l46 65q23 0 43.5 -1.5t40.5 -1.5l57 -48zM213 451l-62 -54h-72l-51 60l-3 89l46 65q23 -2 43.5 -2.5t40.5 -0.5l57 -48z" />
    <glyph glyph-name="semicolon" unicode=";" horiz-adv-x="239" 
d="M66 56l16 54l-57 60v89l46 65q20 0 40.5 -1.5t43.5 -1.5l54 -49l5 -108l-76 -127zM214 451l-62 -54h-72l-54 60v89l46 65q20 -2 40.5 -2.5t43.5 -0.5q14 -12 27 -24t27 -24z" />
    <glyph glyph-name="less" unicode="&#x3c;" horiz-adv-x="588" 
d="M512 126l-487 144l13 184l444 168l65 -171l-214 -81l230 -70z" />
    <glyph glyph-name="equal" unicode="=" horiz-adv-x="508" 
d="M25 575h458v-184h-458v184zM25 348h458v-182h-458v182z" />
    <glyph glyph-name="greater" unicode="&#x3e;" horiz-adv-x="587" 
d="M25 301l230 70l-217 81l65 171l444 -168l15 -184l-488 -144z" />
    <glyph glyph-name="question" unicode="?" horiz-adv-x="510" 
d="M299 134l5 -141l-187 3v144zM485 744l-5 -328l-192 -89v-133l-184 3l5 247l190 89v27h-274v184h460z" />
    <glyph glyph-name="at" unicode="@" horiz-adv-x="704" 
d="M389 324l-54 43h-19l-30 -54l33 -62l41 3l30 27v43h-1zM520 244l33 3l-16 260l-62 76h-263l-73 -87l3 -350l79 -79l423 11l3 -114l-471 -14l-146 146l-5 442l138 157h369l119 -147l28 -409l-198 -14l-46 43l-27 -27l-160 -6l-90 176l84 168l128 5l16 -14v22h117v-228z
" />
    <glyph glyph-name="A" unicode="A" 
d="M36 5l-3 459l163 304l220 -19l138 -293l16 -437l-182 -11l-11 138h-163l3 -135zM366 330l5 80l-73 160l-81 -149l-8 -91h157z" />
    <glyph glyph-name="B" unicode="B" horiz-adv-x="562" 
d="M210 569v-136l133 79l3 63zM210 306v-133h125l-3 70zM25 743l512 24l-16 -361l-49 -30l33 -19l27 -368l-504 3z" />
    <glyph glyph-name="C" unicode="C" horiz-adv-x="448" 
d="M423 525l-214 -16v-329l214 -5l-5 -182l-393 8v679l385 30z" />
    <glyph glyph-name="D" unicode="D" horiz-adv-x="671" 
d="M209 589v-429l163 8l70 165l-128 237zM25 787l404 -41l217 -405l-149 -352l-472 -19v817z" />
    <glyph glyph-name="E" unicode="E" horiz-adv-x="503" 
d="M478 -5l-453 -11l14 799l388 -8l-3 -182l-206 3v-108h168v-184h-173v-132l260 8z" />
    <glyph glyph-name="F" unicode="F" horiz-adv-x="492" 
d="M391 183h-151l8 -183l-182 -11l-41 758l442 3v-182l-247 -3l5 -199h165z" />
    <glyph glyph-name="G" unicode="G" horiz-adv-x="621" 
d="M384 469l8 73h-171l-8 -386l165 -3l-3 51h-84v184l268 -3v-417l-534 5l19 752h552l-33 -276z" />
    <glyph glyph-name="H" unicode="H" horiz-adv-x="539" 
d="M213 730v-306l114 -3l3 308h184l-8 -720h-182l3 230h-117l-3 -230h-182l5 720z" />
    <glyph glyph-name="I" unicode="I" horiz-adv-x="248" 
d="M223 695l-14 -684l-184 3l16 684z" />
    <glyph glyph-name="J" unicode="J" horiz-adv-x="592" 
d="M564 719l3 -730l-542 -8l43 285l182 -27l-11 -70h144l-3 551z" />
    <glyph glyph-name="K" unicode="K" horiz-adv-x="657" 
d="M215 711l-3 -305l125 3l155 305l165 -84l-174 -340l122 -260l-165 -79l-127 274l-103 -3l-3 -247h-182l5 736h185z" />
    <glyph glyph-name="L" unicode="L" horiz-adv-x="500" 
d="M217 719l-5 -537l260 8l3 -184l-450 -11l11 727z" />
    <glyph glyph-name="M" unicode="M" horiz-adv-x="726" 
d="M25 -46l8 777h210l113 -282l147 282l195 -27l3 -710h-182l-3 369l-84 -165l-176 8l-43 114l-3 -367z" />
    <glyph glyph-name="N" unicode="N" horiz-adv-x="617" 
d="M36 -2l-11 729l201 11l179 -388l-8 385l184 3l11 -691l-255 8l-122 268l3 -323z" />
    <glyph glyph-name="O" unicode="O" horiz-adv-x="624" 
d="M215 532l-5 -366l160 -3l30 371zM35 714l564 5l-65 -740l-509 5z" />
    <glyph glyph-name="P" unicode="P" horiz-adv-x="532" 
d="M33 -18l-8 780l482 19v-512l-293 -3v-282zM212 585v-138l111 3v141z" />
    <glyph glyph-name="Q" unicode="Q" horiz-adv-x="614" 
d="M214 557l9 -361l160 -3l13 366zM521 9l49 -114l-168 -70l-79 187l-279 3l-20 724l564 5l-32 -735h-35z" />
    <glyph glyph-name="R" unicode="R" horiz-adv-x="584" 
d="M393 -3l-111 236h-38l14 -260l-184 -11l-49 794l523 3v-523h-65l76 -163zM222 574l8 -160l133 3v157h-141z" />
    <glyph glyph-name="S" unicode="S" horiz-adv-x="598" 
d="M539 540l-304 3l-17 -107l339 -130l16 -325l-507 -11l-3 182l317 8v19l-355 136l39 413l477 -3z" />
    <glyph glyph-name="T" unicode="T" horiz-adv-x="508" 
d="M345 520l-7 -542l-184 3l7 545l-136 3l8 184l450 -16l-5 -182z" />
    <glyph glyph-name="U" unicode="U" horiz-adv-x="592" 
d="M217 730l-8 -550l173 5l3 539h182l-3 -718l-539 -14l11 740z" />
    <glyph glyph-name="V" unicode="V" horiz-adv-x="618" 
d="M596 702l-6 -401l-172 -291q-61 0 -121.5 1t-121.5 3l-128 304l-11 413l182 3l12 -378l67 -163l19 -1l93 160l7 352z" />
    <glyph glyph-name="W" unicode="W" horiz-adv-x="731" 
d="M446 666l-3 -493l70 3l11 555l182 -3l-14 -733q-168 -2 -332 -4.5t-332 -6.5l-5 710l182 3l5 -526h51l3 496h182v-1z" />
    <glyph glyph-name="X" unicode="X" horiz-adv-x="602" 
d="M27 -19l6 305l108 73l-68 46l-5 304l182 3l5 -209l51 -35l73 46l16 192l182 -16l-24 -279l-81 -54l54 -35l12 -354l-182 -8l-9 262l-41 27l-95 -62l-1 -213z" />
    <glyph glyph-name="Y" unicode="Y" horiz-adv-x="603" 
d="M197 -24l10 239l-168 214l-15 339l184 8l9 -280l70 -87l106 152l-8 179l182 8l11 -244l-187 -268l-12 -267z" />
    <glyph glyph-name="Z" unicode="Z" horiz-adv-x="586" 
d="M70 725l491 3l-19 -276l-322 -209v-54l320 11l8 -184l-523 -19l16 350l309 198l-279 -3z" />
    <glyph glyph-name="bracketleft" unicode="[" horiz-adv-x="367" 
d="M342 650h-136v-583h125v-184h-306v951h317v-184z" />
    <glyph glyph-name="backslash" unicode="\" horiz-adv-x="434" 
d="M198 717l211 -672l-173 -54l-211 672z" />
    <glyph glyph-name="bracketright" unicode="]" horiz-adv-x="367" 
d="M25 834h317v-951h-306v184h122v583h-133v184z" />
    <glyph glyph-name="asciicircum" unicode="^" horiz-adv-x="451" 
d="M25 473l100 230l217 -9l84 -222l-173 -65l-24 70l-35 -79z" />
    <glyph glyph-name="underscore" unicode="_" horiz-adv-x="671" 
d="M25 -88v184h621v-184h-621z" />
    <glyph glyph-name="grave" unicode="`" horiz-adv-x="211" 
d="M127 953l53 -151l-55 -41l-100 159z" />
    <glyph glyph-name="a" unicode="a" 
d="M36 5l-11 401l163 304l220 -19l138 -293l24 -379l-182 -11l-11 138h-163l3 -135zM366 330l-3 22l-73 160l-81 -149v-33h157z" />
    <glyph glyph-name="b" unicode="b" horiz-adv-x="562" 
d="M210 547v-114l133 79l3 41zM210 306v-106h125l-3 43zM28 111l-3 610l512 24l-16 -339l-49 -30l33 -19l27 -341l-504 3v92z" />
    <glyph glyph-name="c" unicode="c" horiz-adv-x="448" 
d="M423 501l-214 -16v-276l214 -5l-5 -182l-393 8v626l385 30z" />
    <glyph glyph-name="d" unicode="d" horiz-adv-x="671" 
d="M209 526v-366l163 8l70 165l-98 182zM25 724l434 -33l187 -350l-149 -352l-472 -19v754z" />
    <glyph glyph-name="e" unicode="e" horiz-adv-x="503" 
d="M478 27l-453 -11l14 767l388 -8l-3 -182l-206 3v-108h209v-184h-214v-100l260 8z" />
    <glyph glyph-name="f" unicode="f" horiz-adv-x="492" 
d="M348 183h-108l8 -152l-182 -11l-41 631l442 3v-182l-247 -3l5 -103h122z" />
    <glyph glyph-name="g" unicode="g" horiz-adv-x="621" 
d="M384 427l8 73h-171l-8 -344l165 -3l-3 51h-84v184l268 -3v-417l-534 5l19 710h552l-33 -276z" />
    <glyph glyph-name="h" unicode="h" horiz-adv-x="539" 
d="M213 679v-255l114 -3l3 257h184l-8 -669h-182l3 230h-117l-3 -230h-182l5 669z" />
    <glyph glyph-name="i" unicode="i" horiz-adv-x="248" 
d="M223 653l-14 -642l-184 3l16 642z" />
    <glyph glyph-name="j" unicode="j" horiz-adv-x="592" 
d="M564 650l3 -661l-542 -8l43 285l182 -27l-11 -70h144l-3 482z" />
    <glyph glyph-name="k" unicode="k" horiz-adv-x="657" 
d="M215 615l-3 -209l125 3l130 260l165 -84l-149 -295l122 -260l-165 -79l-127 274l-103 -3l-3 -247h-182l5 640h185z" />
    <glyph glyph-name="l" unicode="l" horiz-adv-x="500" 
d="M217 653l-5 -485l260 8l3 -184l-450 -11l11 675z" />
    <glyph glyph-name="m" unicode="m" horiz-adv-x="726" 
d="M25 4l8 667l228 19l95 -241l122 236l220 19l3 -710h-182l-3 369l-84 -165l-176 8l-43 114l-3 -317z" />
    <glyph glyph-name="n" unicode="n" horiz-adv-x="617" 
d="M36 77l-11 650l201 11l179 -388l-8 385l184 3l11 -691l-255 8l-122 268l3 -244z" />
    <glyph glyph-name="o" unicode="o" horiz-adv-x="624" 
d="M215 483l-5 -317l160 -3l30 322zM35 665l564 5l-65 -691l-509 5z" />
    <glyph glyph-name="p" unicode="p" horiz-adv-x="532" 
d="M33 63l-8 699l482 19v-512l-293 -3v-201zM212 585v-138l111 3v141z" />
    <glyph glyph-name="q" unicode="q" horiz-adv-x="614" 
d="M215 513l8 -317l160 -3l14 322zM521 9l49 -114l-168 -70l-79 187l-279 3l-19 680l564 5l-33 -691h-35z" />
    <glyph glyph-name="r" unicode="r" horiz-adv-x="584" 
d="M393 -30l-111 236h-38l14 -209l-184 -11l-49 743l523 3v-523h-65l76 -163zM222 547l8 -160l133 3v157h-141z" />
    <glyph glyph-name="s" unicode="s" horiz-adv-x="598" 
d="M527 487l-304 3l-5 -54l339 -130l16 -325l-507 -11l-3 182l317 8v19l-355 136l27 360l477 -3z" />
    <glyph glyph-name="t" unicode="t" horiz-adv-x="508" 
d="M345 520l-11 -474l-184 3l11 477l-136 3l8 184l450 -16l-5 -182z" />
    <glyph glyph-name="u" unicode="u" horiz-adv-x="592" 
d="M217 665l-8 -485l173 5l3 474h182l-3 -653l-539 -14l11 675z" />
    <glyph glyph-name="v" unicode="v" horiz-adv-x="618" 
d="M582 714l11 -401l-160 -298q-61 -2 -121.5 -4t-121.5 -2l-141 298l-24 379l182 11l24 -344l73 -160h19l87 163l-8 352z" />
    <glyph glyph-name="w" unicode="w" horiz-adv-x="731" 
d="M446 666l-3 -493l70 3l11 434l182 -3l-14 -612q-168 -2 -332 -4.5t-332 -6.5l-3 645l182 3l3 -461h51l3 496h182v-1z" />
    <glyph glyph-name="x" unicode="x" horiz-adv-x="602" 
d="M25 72l8 214l108 73l-68 46l-5 304l182 3l5 -209l51 -35l73 46l16 192l182 -16l-24 -279l-81 -54l54 -35l14 -279l-182 -8l-11 187l-41 27l-95 -62l-3 -122z" />
    <glyph glyph-name="y" unicode="y" horiz-adv-x="603" 
d="M204 61l3 154l-168 214l-14 295l184 8l8 -236l70 -87l106 152l-8 179l182 8l11 -244l-187 -268l-5 -182z" />
    <glyph glyph-name="z" unicode="z" horiz-adv-x="586" 
d="M70 725l491 3l-19 -276l-322 -209v-24l320 11l8 -184l-523 -19l16 320l309 198l-279 -3z" />
    <glyph glyph-name="braceleft" unicode="{" horiz-adv-x="457" 
d="M267 856q42 -21 82.5 -41.5t82.5 -41.5q-19 -41 -37 -97q-15 -48 -30.5 -118.5t-24.5 -163.5q-18 -8 -36.5 -16.5t-36.5 -16.5q17 -12 35 -24.5t35 -24.5q11 -92 34.5 -184t60.5 -186l-165 -84q-43 90 -68.5 175t-37.5 179q-34 24 -68 47.5t-68 47.5l3 150l141 63
q11 75 27.5 136t32.5 106q18 52 38 94z" />
    <glyph glyph-name="bar" unicode="|" horiz-adv-x="232" 
d="M25 -123v959h182v-959h-182z" />
    <glyph glyph-name="braceright" unicode="}" horiz-adv-x="457" 
d="M25 774q41 20 81 41t81 41q1 0 13 -24.5t27.5 -69t32.5 -106.5t28 -136l141 -63q1 -38 1.5 -74.5t1.5 -74.5q-35 -24 -69.5 -47.5t-69.5 -47.5q-10 -95 -35 -179.5t-70 -174.5q-41 21 -81.5 42t-81.5 42q42 76 64.5 165.5t30.5 204.5q17 12 34 24.5t34 24.5
q-18 8 -35.5 16.5t-35.5 16.5q-12 222 -92 379z" />
    <glyph glyph-name="asciitilde" unicode="~" horiz-adv-x="484" 
d="M25 269l103 179h122l65 -146l33 119l111 -27l-57 -217l-151 -9l-65 146l-60 -103z" />
    <glyph glyph-name="cent" unicode="&#xa2;" horiz-adv-x="514" 
d="M165 47v148l-138 3v432l138 8v107h118v-100l95 7l12 -128l-107 -5v-200l107 -1l-5 -126l-102 1v-146h-118zM143 322l22 -1v192l-22 -1v-190z" />
    <glyph glyph-name="sterling" unicode="&#xa3;" horiz-adv-x="540" 
d="M52 477h30l3 221l123 -2l-2 -216l162 3l-2 -100l-162 -2q0 -48 -0.5 -96.5t-0.5 -99.5q35 13 65 15.5t58 -1t55 -11t57 -14.5l2 -119q-94 21 -184 17.5t-181 -26.5q1 84 2 166.5t3 166.5h-30z" />
    <glyph glyph-name="yen" unicode="&#xa5;" horiz-adv-x="603" 
d="M59 367l90 -2l-114 146l-5 225l141 6l1 -180l53 -67l81 117l-6 136l139 7l9 -187l-143 -205v-1l124 -2l-2 -100l-125 3l-1 -32l128 -2l-2 -100l-129 3l-3 -98l-139 5l2 96l-101 3l2 98l102 -2l1 32l-105 3z" />
    <glyph glyph-name="dieresis" unicode="&#xa8;" horiz-adv-x="268" 
d="M120 846l3 -56l-33 -28h-37l-28 31v45l24 34l42 -2zM236 846l3 -56l-32 -28h-38l-28 31v45l24 34l42 -2z" />
    <glyph glyph-name="guillemotleft" unicode="&#xab;" horiz-adv-x="663" 
d="M304 80l-271 219v175l280 196l65 -94l-266 -190l266 -212zM553 80l-271 219v175l280 196l65 -94l-266 -190l266 -212z" />
    <glyph glyph-name="acute" unicode="&#xb4;" horiz-adv-x="231" 
d="M189 921l-100 -159l-55 41l53 151z" />
    <glyph glyph-name="cedilla" unicode="&#xb8;" horiz-adv-x="231" 
d="M110 33v-64l87 -6v-197l-157 -3l-2 68l85 2v66l-85 6l-1 126z" />
    <glyph glyph-name="guillemotright" unicode="&#xbb;" horiz-adv-x="685" 
d="M294 174l266 212l-266 190l65 94l280 -196v-175l-271 -219zM45 174l266 212l-266 190l65 94l280 -196v-175l-271 -219z" />
    <glyph glyph-name="Agrave" unicode="&#xc0;" 
d="M36 5l-3 459l163 304l220 -19l138 -293l16 -437l-182 -11l-11 138h-163l3 -135zM366 330l5 80l-73 160l-81 -149l-8 -91h157zM322 988l53 -151l-55 -41l-100 159z" />
    <glyph glyph-name="Aacute" unicode="&#xc1;" 
d="M217 11l-3 135h163l11 -138l182 11l-16 437l-138 293l-220 19l-163 -304l3 -459zM209 330l8 91l81 149l73 -160l-5 -80h-157zM375 956l-100 -159l-55 41l53 151z" />
    <glyph glyph-name="Acircumflex" unicode="&#xc2;" 
d="M36 5l-3 459l163 304l220 -19l138 -293l16 -437l-182 -11l-11 138h-163l3 -135zM366 330l5 80l-73 160l-81 -149l-8 -91h157zM201 821l62 143l78 -7l52 -139l-68 -25l-26 77l-33 -76z" />
    <glyph glyph-name="Atilde" unicode="&#xc3;" 
d="M36 5l-3 459l163 304l220 -19l138 -293l16 -437l-182 -11l-11 138h-163l3 -135zM366 330l5 80l-73 160l-81 -149l-8 -91h157zM164 859l63 110h75l40 -90l21 73l68 -16l-35 -134l-93 -5l-40 90l-37 -64z" />
    <glyph glyph-name="Adieresis" unicode="&#xc4;" 
d="M36 5l-3 459l163 304l220 -19l138 -293l16 -437l-182 -11l-11 138h-163l3 -135zM366 330l5 80l-73 160l-81 -149l-8 -91h157zM285 881l3 -56l-33 -28h-37l-28 31v45l24 34l42 -2zM401 881l3 -56l-32 -28h-38l-28 31v45l24 34l42 -2z" />
    <glyph glyph-name="Aring" unicode="&#xc5;" 
d="M36 5l-3 459l163 304l220 -19l138 -293l16 -437l-182 -11l-11 138h-163l3 -135zM366 330l5 80l-73 160l-81 -149l-8 -91h157zM387 960l6 -109l-63 -55h-73l-55 60v89l46 66l83 -3zM316 960l-46 2l-25 -36v-49l30 -32h40l34 30l-3 59z" />
    <glyph glyph-name="AE" unicode="&#xc6;" horiz-adv-x="882" 
d="M843 -5l-453 -11l-4 162h-172l3 -135l-181 -6l-3 459l163 304l639 -26l-3 -182l-249 3v-102h238v-184h-243v-105l260 8zM375 330l-4 80l-73 160l-81 -149l-8 -91h166z" />
    <glyph glyph-name="Ccedilla" unicode="&#xc7;" horiz-adv-x="448" 
d="M423 525l-214 -16v-329l214 -5l-5 -182l-201 4v-28l87 -6v-197l-157 -3l-2 68l85 2v66l-85 6l-1 94l-119 2v679l385 30z" />
    <glyph glyph-name="Egrave" unicode="&#xc8;" horiz-adv-x="503" 
d="M478 -5l-453 -11l14 799l388 -8l-3 -182l-206 3v-108h168v-184h-173v-132l260 8zM276 988l53 -151l-55 -41l-100 159z" />
    <glyph glyph-name="Eacute" unicode="&#xc9;" horiz-adv-x="503" 
d="M473 180l-260 -8v132h173v184h-168v108l206 -3l3 182l-388 8l-14 -799l453 11zM329 956l-100 -159l-55 41l53 151z" />
    <glyph glyph-name="Ecircumflex" unicode="&#xca;" horiz-adv-x="503" 
d="M478 -5l-453 -11l14 799l388 -8l-3 -182l-206 3v-108h168v-184h-173v-132l260 8zM155 821l62 143l78 -7l52 -139l-68 -25l-26 77l-33 -76z" />
    <glyph glyph-name="Edieresis" unicode="&#xcb;" horiz-adv-x="503" 
d="M478 -5l-453 -11l14 799l388 -8l-3 -182l-206 3v-108h168v-184h-173v-132l260 8zM239 881l3 -56l-33 -28h-37l-28 31v45l24 34l42 -2zM355 881l3 -56l-32 -28h-38l-28 31v45l24 34l42 -2z" />
    <glyph glyph-name="Igrave" unicode="&#xcc;" horiz-adv-x="248" 
d="M223 695l-14 -684l-184 3l16 684zM148 988l53 -151l-55 -41l-100 159z" />
    <glyph glyph-name="Iacute" unicode="&#xcd;" horiz-adv-x="248" 
d="M41 698l-16 -684l184 -3l14 684zM201 956l-100 -159l-55 41l53 151z" />
    <glyph glyph-name="Icircumflex" unicode="&#xce;" horiz-adv-x="249" 
d="M223 695l-14 -684l-184 3l16 684zM32 788l62 143l78 -7l52 -139l-68 -25l-26 77l-33 -76z" />
    <glyph glyph-name="Idieresis" unicode="&#xcf;" horiz-adv-x="248" 
d="M223 695l-14 -684l-184 3l16 684zM112 881l3 -56l-33 -28h-37l-28 31v45l24 34l42 -2zM228 881l3 -56l-32 -28h-38l-28 31v45l24 34l42 -2z" />
    <glyph glyph-name="Eth" unicode="&#xd0;" horiz-adv-x="657" 
d="M25 248h-25v184h25v355l404 -41l217 -405l-149 -352l-472 -19v278zM209 248v-88l163 8l70 165l-128 237l-105 19v-157h75v-184h-75z" />
    <glyph glyph-name="Ntilde" unicode="&#xd1;" horiz-adv-x="617" 
d="M36 -2l-11 729l201 11l179 -388l-8 385l184 3l11 -691l-255 8l-122 268l3 -323zM175 859l63 110h75l40 -90l21 73l68 -16l-35 -134l-93 -5l-40 90l-37 -64z" />
    <glyph glyph-name="Ograve" unicode="&#xd2;" horiz-adv-x="624" 
d="M215 532l-5 -366l160 -3l30 371zM35 714l564 5l-65 -740l-509 5zM336 988l53 -151l-55 -41l-100 159z" />
    <glyph glyph-name="Oacute" unicode="&#xd3;" horiz-adv-x="624" 
d="M400 534l-30 -371l-160 3l5 366zM25 -16l509 -5l65 740l-564 -5zM389 956l-100 -159l-55 41l53 151z" />
    <glyph glyph-name="Ocircumflex" unicode="&#xd4;" horiz-adv-x="624" 
d="M215 532l-5 -366l160 -3l30 371zM35 714l564 5l-65 -740l-509 5zM217 820l62 143l78 -7l52 -139l-68 -25l-26 77l-33 -76z" />
    <glyph glyph-name="Otilde" unicode="&#xd5;" horiz-adv-x="624" 
d="M215 532l-5 -366l160 -3l30 371zM35 714l564 5l-65 -740l-509 5zM178 859l63 110h75l40 -90l21 73l68 -16l-35 -134l-93 -5l-40 90l-37 -64z" />
    <glyph glyph-name="Odieresis" unicode="&#xd6;" horiz-adv-x="624" 
d="M215 532l-5 -366l160 -3l30 371zM35 714l564 5l-65 -740l-509 5zM300 881l3 -56l-33 -28h-37l-28 31v45l24 34l42 -2zM416 881l3 -56l-32 -28h-38l-28 31v45l24 34l42 -2z" />
    <glyph glyph-name="Oslash" unicode="&#xd8;" horiz-adv-x="624" 
d="M35 714l292 2l68 211l176 -54l-50 -155l78 1l-65 -740l-251 3l-63 -198l-176 54l47 146h-66zM212 361l55 171h-52zM370 163l9 116l-37 -116h28z" />
    <glyph glyph-name="Ugrave" unicode="&#xd9;" horiz-adv-x="592" 
d="M217 730l-8 -550l173 5l3 539h182l-3 -718l-539 -14l11 740zM320 988l53 -151l-55 -41l-100 159z" />
    <glyph glyph-name="Uacute" unicode="&#xda;" horiz-adv-x="592" 
d="M36 732l-11 -740l539 14l3 718h-182l-3 -539l-173 -5l8 550zM373 956l-100 -159l-55 41l53 151z" />
    <glyph glyph-name="Ucircumflex" unicode="&#xdb;" horiz-adv-x="592" 
d="M217 730l-8 -550l173 5l3 539h182l-3 -718l-539 -14l11 740zM200 821l62 143l78 -7l52 -139l-68 -25l-26 77l-33 -76z" />
    <glyph glyph-name="Udieresis" unicode="&#xdc;" horiz-adv-x="592" 
d="M217 730l-8 -550l173 5l3 539h182l-3 -718l-539 -14l11 740zM284 881l3 -56l-33 -28h-37l-28 31v45l24 34l42 -2zM400 881l3 -56l-32 -28h-38l-28 31v45l24 34l42 -2z" />
    <glyph glyph-name="Yacute" unicode="&#xdd;" horiz-adv-x="603" 
d="M379 -31l12 267l187 268l-11 244l-182 -8l8 -179l-106 -152l-70 87l-9 280l-184 -8l15 -339l168 -214l-10 -239zM379 956l-100 -159l-55 41l53 151z" />
    <glyph glyph-name="germandbls" unicode="&#xdf;" horiz-adv-x="611" 
d="M300 442h61l35 41l-3 57l-173 -2l-11 -527l-184 3l13 707l444 3l92 -92l3 -214l-43 -54l46 -49l3 -214l-92 -92l-221 8l3 182l126 -5v46l-16 19h-83v183z" />
    <glyph glyph-name="agrave" unicode="&#xe0;" 
d="M36 5l-11 401l163 304l220 -19l138 -293l24 -379l-182 -11l-11 138h-163l3 -135zM366 330l-3 22l-73 160l-81 -149v-33h157zM322 953l53 -151l-55 -41l-100 159z" />
    <glyph glyph-name="aacute" unicode="&#xe1;" 
d="M217 11l-3 135h163l11 -138l182 11l-24 379l-138 293l-220 19l-163 -304l11 -401zM209 330v33l81 149l73 -160l3 -22h-157zM375 921l-100 -159l-55 41l53 151z" />
    <glyph glyph-name="acircumflex" unicode="&#xe2;" 
d="M36 5l-11 401l163 304l220 -19l138 -293l24 -379l-182 -11l-11 138h-163l3 -135zM366 330l-3 22l-73 160l-81 -149v-33h157zM201 786l62 143l78 -7l52 -139l-55 -22l-38 110l-49 -108z" />
    <glyph glyph-name="atilde" unicode="&#xe3;" 
d="M36 5l-11 401l163 304l220 -19l138 -293l24 -379l-182 -11l-11 138h-163l3 -135zM366 330l-3 22l-73 160l-81 -149v-33h157zM164 824l63 110h75l40 -90l21 73l68 -16l-35 -134l-93 -5l-40 90l-37 -64z" />
    <glyph glyph-name="adieresis" unicode="&#xe4;" 
d="M36 5l-11 401l163 304l220 -19l138 -293l24 -379l-182 -11l-11 138h-163l3 -135zM366 330l-3 22l-73 160l-81 -149v-33h157zM285 846l3 -56l-33 -28h-37l-28 31v45l24 34l42 -2zM401 846l3 -56l-32 -28h-38l-28 31v45l24 34l42 -2z" />
    <glyph glyph-name="aring" unicode="&#xe5;" 
d="M36 5l-11 401l163 304l220 -19l138 -293l24 -379l-182 -11l-11 138h-163l3 -135zM366 330l-3 22l-73 160l-81 -149v-33h157zM387 925l6 -109l-63 -55h-73l-55 60v89l46 66l83 -3zM316 925l-46 2l-25 -36v-49l30 -32h40l34 30l-3 59z" />
    <glyph glyph-name="ae" unicode="&#xe6;" horiz-adv-x="812" 
d="M792 22l-424 -10l-4 152h-161l2 -127l-169 -5l-3 430l153 285l599 -24l-3 -171l-233 3v-96h223v-172h-228v-99l244 8zM354 336l-4 75l-69 150l-76 -139l-7 -86h156z" />
    <glyph glyph-name="ccedilla" unicode="&#xe7;" horiz-adv-x="448" 
d="M423 501l-214 -16v-276l214 -5l-5 -182l-194 4v-39l87 -6v-197l-157 -3l-2 68l85 2v66l-85 6l-1 104l-126 3v626l385 30z" />
    <glyph glyph-name="egrave" unicode="&#xe8;" horiz-adv-x="503" 
d="M478 27l-453 -11l14 767l388 -8l-3 -182l-206 3v-108h209v-184h-214v-100l260 8zM276 983l53 -151l-55 -41l-100 159z" />
    <glyph glyph-name="eacute" unicode="&#xe9;" horiz-adv-x="503" 
d="M473 212l-260 -8v100h214v184h-209v108l206 -3l3 182l-388 8l-14 -767l453 11zM329 956l-100 -159l-55 41l53 151z" />
    <glyph glyph-name="ecircumflex" unicode="&#xea;" horiz-adv-x="503" 
d="M478 27l-453 -11l14 767l388 -8l-3 -182l-206 3v-108h209v-184h-214v-100l260 8zM155 821l62 143l78 -7l52 -139l-68 -25l-26 77l-33 -76z" />
    <glyph glyph-name="edieresis" unicode="&#xeb;" horiz-adv-x="503" 
d="M478 27l-453 -11l14 767l388 -8l-3 -182l-206 3v-108h209v-184h-214v-100l260 8zM239 881l3 -56l-33 -28h-37l-28 31v45l24 34l42 -2zM355 881l3 -56l-32 -28h-38l-28 31v45l24 34l42 -2z" />
    <glyph glyph-name="igrave" unicode="&#xec;" horiz-adv-x="248" 
d="M223 653l-14 -642l-184 3l16 642zM148 898l53 -151l-55 -41l-100 159z" />
    <glyph glyph-name="iacute" unicode="&#xed;" horiz-adv-x="248" 
d="M41 656l-16 -642l184 -3l14 642zM201 865l-100 -159l-55 41l53 151z" />
    <glyph glyph-name="icircumflex" unicode="&#xee;" horiz-adv-x="248" 
d="M223 653l-14 -642l-184 3l16 642zM27 729l62 143l78 -7l52 -139l-68 -25l-26 77l-33 -76z" />
    <glyph glyph-name="idieresis" unicode="&#xef;" horiz-adv-x="248" 
d="M223 653l-14 -642l-184 3l16 642zM112 790l3 -56l-33 -28h-37l-28 31v45l24 34l42 -2zM228 790l3 -56l-32 -28h-38l-28 31v45l24 34l42 -2z" />
    <glyph glyph-name="eth" unicode="&#xf0;" horiz-adv-x="654" 
d="M3 432l22 -1v293l434 -33l187 -350l-149 -352l-472 -19v278l-25 2zM209 526v-103l106 -5l-3 -184l-103 5v-79l163 8l70 165l-98 182z" />
    <glyph glyph-name="ntilde" unicode="&#xf1;" horiz-adv-x="617" 
d="M36 77l-11 650l201 11l179 -388l-8 385l184 3l11 -691l-255 8l-122 268l3 -244zM175 824l63 110h75l40 -90l21 73l68 -16l-35 -134l-93 -5l-40 90l-37 -64z" />
    <glyph glyph-name="ograve" unicode="&#xf2;" horiz-adv-x="624" 
d="M215 483l-5 -317l160 -3l30 322zM35 665l564 5l-65 -691l-509 5zM336 902l53 -151l-55 -41l-100 159z" />
    <glyph glyph-name="oacute" unicode="&#xf3;" horiz-adv-x="624" 
d="M400 485l-30 -322l-160 3l5 317zM25 -16l509 -5l65 691l-564 -5zM389 865l-100 -159l-55 41l53 151z" />
    <glyph glyph-name="ocircumflex" unicode="&#xf4;" horiz-adv-x="624" 
d="M215 483l-5 -317l160 -3l30 322zM35 665l564 5l-65 -691l-509 5zM215 727l62 143l78 -7l52 -139l-68 -25l-26 77l-33 -76z" />
    <glyph glyph-name="otilde" unicode="&#xf5;" horiz-adv-x="624" 
d="M215 483l-5 -317l160 -3l30 322zM35 665l564 5l-65 -691l-509 5zM178 762l63 110h75l40 -90l21 73l68 -16l-35 -134l-93 -5l-40 90l-37 -64z" />
    <glyph glyph-name="odieresis" unicode="&#xf6;" horiz-adv-x="624" 
d="M215 483l-5 -317l160 -3l30 322zM35 665l564 5l-65 -691l-509 5zM300 790l3 -56l-33 -28h-37l-28 31v45l24 34l42 -2zM416 790l3 -56l-32 -28h-38l-28 31v45l24 34l42 -2z" />
    <glyph glyph-name="oslash" unicode="&#xf8;" horiz-adv-x="624" 
d="M35 665l288 2l76 199l176 -54l-55 -143l79 1l-65 -691l-278 3l-62 -163l-176 54l42 111h-35zM370 163l14 151l-58 -150zM213 382l39 101h-37z" />
    <glyph glyph-name="ugrave" unicode="&#xf9;" horiz-adv-x="592" 
d="M217 665l-8 -485l173 5l3 474h182l-3 -653l-539 -14l11 675zM320 898l53 -151l-55 -41l-100 159z" />
    <glyph glyph-name="uacute" unicode="&#xfa;" horiz-adv-x="592" 
d="M36 667l-11 -675l539 14l3 653h-182l-3 -474l-173 -5l8 485zM373 865l-100 -159l-55 41l53 151z" />
    <glyph glyph-name="ucircumflex" unicode="&#xfb;" horiz-adv-x="592" 
d="M217 665l-8 -485l173 5l3 474h182l-3 -653l-539 -14l11 675zM200 730l62 143l78 -7l52 -139l-68 -25l-26 77l-33 -76z" />
    <glyph glyph-name="udieresis" unicode="&#xfc;" horiz-adv-x="592" 
d="M217 665l-8 -485l173 5l3 474h182l-3 -653l-539 -14l11 675zM284 790l3 -56l-33 -28h-37l-28 31v45l24 34l42 -2zM400 790l3 -56l-32 -28h-38l-28 31v45l24 34l42 -2z" />
    <glyph glyph-name="yacute" unicode="&#xfd;" horiz-adv-x="603" 
d="M386 54l5 182l187 268l-11 244l-182 -8l8 -179l-106 -152l-70 87l-8 236l-184 -8l14 -295l168 -214l-3 -154zM379 921l-100 -159l-55 41l53 151z" />
    <glyph glyph-name="ydieresis" unicode="&#xff;" horiz-adv-x="603" 
d="M204 61l3 154l-168 214l-14 295l184 8l8 -236l70 -87l106 152l-8 179l182 8l11 -244l-187 -268l-5 -182zM289 846l3 -56l-33 -28h-37l-28 31v45l24 34l42 -2zM405 846l3 -56l-32 -28h-38l-28 31v45l24 34l42 -2z" />
    <glyph glyph-name="Lslash" unicode="&#x141;" horiz-adv-x="500" 
d="M217 719l-3 -306l78 45l51 -107l-130 -75l-1 -94l260 8l3 -184l-450 -11l2 174l-4 -2l-51 107l57 33l7 415z" />
    <glyph glyph-name="lslash" unicode="&#x142;" horiz-adv-x="500" 
d="M217 653l-3 -240l78 45l51 -107l-130 -75l-1 -108l260 8l3 -184l-450 -11l3 189l-5 -3l-51 107l58 33l6 349z" />
    <glyph glyph-name="OE" unicode="&#x152;" horiz-adv-x="860" 
d="M837 -11l-812 -5l-5 767l814 -14l-3 -182l-254 3v-108h235v-184h-240v-100l260 8zM199 562l11 -396l160 -3l16 397z" />
    <glyph glyph-name="oe" unicode="&#x153;" horiz-adv-x="865" 
d="M837 -11l-812 -5l-5 767l814 -14l-3 -182l-254 3v-108h235v-184h-240v-100l260 8zM199 562l11 -396l160 -3l16 397z" />
    <glyph glyph-name="Scaron" unicode="&#x160;" horiz-adv-x="598" 
d="M539 540l-304 3l-17 -107l339 -130l16 -325l-507 -11l-3 182l317 8v19l-355 136l39 413l477 -3zM395 939l-62 -143l-78 7l-52 139l55 22l38 -110l49 108z" />
    <glyph glyph-name="scaron" unicode="&#x161;" horiz-adv-x="598" 
d="M527 487l-304 3l-5 -54l339 -130l16 -325l-507 -11l-3 182l317 8v19l-355 136l27 360l477 -3zM395 904l-62 -143l-78 7l-52 139l55 22l38 -110l49 108z" />
    <glyph glyph-name="Ydieresis" unicode="&#x178;" horiz-adv-x="603" 
d="M197 -24l10 239l-168 214l-15 339l184 8l9 -280l70 -87l106 152l-8 179l182 8l11 -244l-187 -268l-12 -267zM289 881l3 -56l-33 -28h-37l-28 31v45l24 34l42 -2zM405 881l3 -56l-32 -28h-38l-28 31v45l24 34l42 -2z" />
    <glyph glyph-name="Zcaron" unicode="&#x17d;" horiz-adv-x="586" 
d="M70 725l491 3l-19 -276l-322 -209v-54l320 11l8 -184l-523 -19l16 350l309 198l-279 -3zM399 904l-62 -143l-78 7l-52 139l68 25l26 -77l33 76z" />
    <glyph glyph-name="zcaron" unicode="&#x17e;" horiz-adv-x="586" 
d="M70 725l491 3l-19 -276l-322 -209v-24l320 11l8 -184l-523 -19l16 320l309 198l-279 -3zM391 904l-62 -143l-78 7l-52 139l68 25l26 -77l33 76z" />
    <glyph glyph-name="circumflex" unicode="&#x2c6;" horiz-adv-x="252" 
d="M25 786l62 143l78 -7l52 -139l-68 -25l-26 77l-33 -76z" />
    <glyph glyph-name="caron" unicode="&#x2c7;" horiz-adv-x="248" 
d="M218 904l-62 -143l-78 7l-52 139l68 25l26 -77l33 76z" />
    <glyph glyph-name="breve" unicode="&#x2d8;" horiz-adv-x="328" 
d="M113 913l6 -82h105l2 82l70 -2l-3 -150h-240l-11 147z" />
    <glyph glyph-name="ring" unicode="&#x2da;" horiz-adv-x="262" 
d="M210 925l6 -109l-63 -55h-73l-55 60v89l46 66l83 -3zM139 925l-46 2l-25 -36v-49l30 -32h40l34 30l-3 59z" />
    <glyph glyph-name="ogonek" unicode="&#x2db;" horiz-adv-x="223" 
d="M155 185l-56 -139h37l-4 28l57 8l15 -101l-192 3l78 201h65z" />
    <glyph glyph-name="tilde" unicode="&#x2dc;" horiz-adv-x="329" 
d="M25 824l63 110h75l40 -90l21 73l68 -16l-35 -134l-93 -5l-40 90l-37 -64z" />
    <glyph glyph-name="hungarumlaut" unicode="&#x2dd;" horiz-adv-x="369" 
d="M189 920l-100 -159l-55 41l53 151zM334 920l-100 -159l-55 41l53 151z" />
    <glyph glyph-name="quoteleft" unicode="&#x2018;" horiz-adv-x="237" 
d="M172 869l-14 -51l54 -60v-89l-43 -65h-84l-57 51l-3 108l73 127z" />
    <glyph glyph-name="quoteright" unicode="&#x2019;" horiz-adv-x="237" 
d="M65 625l14 51l-54 60v89l43 65h84l57 -51l3 -108l-73 -127z" />
    <glyph glyph-name="quotesinglbase" unicode="&#x201a;" horiz-adv-x="237" 
d="M65 -51l14 51l-54 60v89l43 65h84l57 -51l3 -108l-73 -127z" />
    <glyph glyph-name="quotedblleft" unicode="&#x201c;" horiz-adv-x="406" 
d="M338 868l-14 -51l57 -60v-89l-46 -65h-84l-49 46l-33 -46h-84l-57 51l-3 108l73 127l73 -22l-14 -51l41 -43l65 117z" />
    <glyph glyph-name="quotedblright" unicode="&#x201d;" horiz-adv-x="406" 
d="M68 626l14 51l-57 60v89l46 65h84l49 -46l33 46h84l57 -51l3 -108l-73 -127l-73 22l14 51l-41 43l-65 -117z" />
    <glyph glyph-name="quotedblbase" unicode="&#x201e;" horiz-adv-x="406" 
d="M68 -52l14 51l-57 60v89l46 65h84l49 -46l33 46h84l57 -51l3 -108l-73 -127l-73 22l14 51l-41 43l-65 -117z" />
    <glyph glyph-name="guilsinglleft" unicode="&#x2039;" horiz-adv-x="465" 
d="M304 80l-262 201l-9 193l280 196l102 -143l-223 -153l215 -161z" />
    <glyph glyph-name="guilsinglright" unicode="&#x203a;" horiz-adv-x="437" 
d="M33 213l215 161l-223 153l102 143l280 -196l-9 -193l-262 -201z" />
    <glyph glyph-name="Euro" unicode="&#x20ac;" horiz-adv-x="546" 
d="M30 529l43 -1v193l341 30l13 -126l-214 -16v-84l187 -3l-2 -100l-185 4v-32l187 -3l-2 -100l-185 4v-105l214 -5l-5 -124l-349 8v230l-45 1l2 98l43 -1v33l-45 1z" />
    <glyph glyph-name="Snumber" horiz-adv-x="416" 
d="M364 604l-200 2l-12 -71l224 -86l11 -214l-335 -7l-2 120l209 5v13l-234 89l26 273l315 -2z" />
    </font>
</defs>
</svg>
